<?xml version="1.0" encoding="utf-8"?>
<!-- Generator: Adobe Illustrator 27.0.0, SVG Export Plug-In . SVG Version: 6.00 Build 0)  -->
<svg version="1.1" id="Warstwa_1" xmlns="http://www.w3.org/2000/svg" xmlns:xlink="http://www.w3.org/1999/xlink" x="0px" y="0px"
	 viewBox="0 0 512 512" style="enable-background:new 0 0 512 512;" xml:space="preserve">
<style type="text/css">
	.st0{fill:#FFFFFF;}
</style>
<g>
	<path class="st0" d="M380.9,278.3l-106-183.6c-6-10.4-19.4-14-29.8-8c-3.3,1.9-6.1,4.7-8,8l-106,183.6c-6,10.4-2.5,23.8,8,29.8
		c3.3,1.9,7.1,2.9,10.9,2.9h212c12,0,21.8-9.8,21.8-21.8C383.8,285.4,382.8,281.6,380.9,278.3z M256,281.6
		c-7.6,0-13.7-6.1-13.7-13.7s6.1-13.7,13.7-13.7c7.6,0,13.7,6.1,13.7,13.7S263.6,281.6,256,281.6z M269.7,222.6
		c0,6.8-5.5,12.3-12.3,12.3h-2.8c-6.8,0-12.3-5.5-12.3-12.3v-58.9c0-6.8,5.5-12.3,12.3-12.3h2.8c6.8,0,12.3,5.5,12.3,12.3V222.6z"/>
	<g>
		<path class="st0" d="M149.4,435H122c-5.4,0-9.4-4-9.4-9.1v-70.7c0-5.1,4-9.1,9.4-9.1h22.7c13.2,0,27,7.2,27,22.6
			c0,9-3.9,15.8-11.1,19.1v0.3c12.8,3,18.4,11.2,18.4,22.9C179.1,427.4,164.2,435,149.4,435z M141.3,361.2h-9.9v21h9.8
			c4.8,0,11.8-2,11.8-11.1C152.9,364.6,147.7,361.2,141.3,361.2z M144.6,397.2h-13.2v22.5h13.8c7.7,0,14.6-2.2,14.6-11.2
			C159.9,401.9,155.4,397.2,144.6,397.2z"/>
		<path class="st0" d="M253.1,436.3c-26.7,0-47.7-18-47.7-45.6c0-27.6,21-45.9,47.7-45.9c26.6,0,47.6,18.4,47.6,45.9
			C300.7,418.1,279.8,436.3,253.1,436.3z M253.1,362.5c-15.9,0-27.7,12.3-27.7,28.2c0,16.1,11.8,28.1,27.7,28.1
			c15.9,0,27.6-12.1,27.6-28.1C280.7,374.7,269.1,362.5,253.1,362.5z"/>
		<path class="st0" d="M369.8,384.5l28.1,37.2c1,1.4,1.6,3.3,1.6,5c0,4.8-4.2,9.5-9.5,9.5c-3.4,0-5.7-1.6-7.7-4.2l-25.1-34.4l-7.8,8
			v21.4c0,5.1-4.4,9.1-9.4,9.1c-5.2,0-9.4-4-9.4-9.1V354c0-5.1,4.2-9.1,9.4-9.1s9.4,4,9.4,9.1v27.6l31.6-33.8c1.7-1.8,4-2.9,6.5-2.9
			c4.7,0,9,4,9,9.1c0,2.1-0.7,4.2-2.2,5.7L369.8,384.5z"/>
	</g>
</g>
</svg>
