<?xml version="1.0" encoding="utf-8"?>
<!-- Generator: Adobe Illustrator 27.0.0, SVG Export Plug-In . SVG Version: 6.00 Build 0)  -->
<svg version="1.1" id="Capa_1" xmlns="http://www.w3.org/2000/svg" xmlns:xlink="http://www.w3.org/1999/xlink" x="0px" y="0px"
	 viewBox="0 0 512 512" style="enable-background:new 0 0 512 512;" xml:space="preserve">
<style type="text/css">
	.st0{fill:#F6B545;}
	.st1{fill:#FFCB5B;}
	.st2{fill:#F19920;}
	.st3{fill:#C97629;}
	.st4{fill:#B06328;}
	.st5{fill:#FFE278;}
	.st6{fill:#FFE27A;}
	.st7{fill:#E78825;}
</style>
<path class="st0" d="M267.6,500.4h-256c-7,0-11.6-4.7-11.6-11.6v-23.3c0-7,4.7-11.6,11.6-11.6h256c7,0,11.6,4.7,11.6,11.6v23.3
	C279.3,495.7,274.6,500.4,267.6,500.4z"/>
<path class="st1" d="M221.1,465.5H0l0,0c0-7,4.7-11.6,11.6-11.6h209.5V465.5z"/>
<g>
	<path class="st2" d="M221.1,465.5v11.6c0,7-4.7,11.6-11.6,11.6H0c0,7,4.7,11.6,11.6,11.6h197.8h58.2c7,0,11.6-4.7,11.6-11.6v-23.3
		L221.1,465.5L221.1,465.5z"/>
	<path class="st2" d="M34.9,488.7v-17.5c0-3.5-2.3-5.8-5.8-5.8s-5.8,2.3-5.8,5.8v17.5"/>
	<path class="st2" d="M69.8,488.7v-17.5c0-3.5-2.3-5.8-5.8-5.8c-3.5,0-5.8,2.3-5.8,5.8v17.5"/>
	<path class="st2" d="M104.7,488.7v-17.5c0-3.5-2.3-5.8-5.8-5.8s-5.8,2.3-5.8,5.8v17.5"/>
	<path class="st2" d="M139.6,488.7v-17.5c0-3.5-2.3-5.8-5.8-5.8s-5.8,2.3-5.8,5.8v17.5"/>
	<path class="st2" d="M174.5,488.7v-17.5c0-3.5-2.3-5.8-5.8-5.8s-5.8,2.3-5.8,5.8v17.5"/>
	<path class="st2" d="M209.5,488.7v-17.5c0-3.5-2.3-5.8-5.8-5.8s-5.8,2.3-5.8,5.8v17.5"/>
</g>
<path class="st0" d="M290.9,453.8h-256c-7,0-11.6-4.7-11.6-11.6v-23.3c0-7,4.7-11.6,11.6-11.6h256c7,0,11.6,4.7,11.6,11.6v23.3
	C302.5,449.2,297.9,453.8,290.9,453.8z"/>
<path class="st1" d="M244.4,418.9H23.3l0,0c0-7,4.7-11.6,11.6-11.6h209.5V418.9z"/>
<g>
	<path class="st2" d="M244.4,418.9v11.6c0,7-4.7,11.6-11.6,11.6H23.3c0,7,4.7,11.6,11.6,11.6h197.8h58.2c7,0,11.6-4.7,11.6-11.6
		v-23.3L244.4,418.9L244.4,418.9z"/>
	<path class="st2" d="M58.2,442.2v-17.5c0-3.5-2.3-5.8-5.8-5.8s-5.8,2.3-5.8,5.8v17.5"/>
	<path class="st2" d="M93.1,442.2v-17.5c0-3.5-2.3-5.8-5.8-5.8s-5.8,2.3-5.8,5.8v17.5"/>
	<path class="st2" d="M128,442.2v-17.5c0-3.5-2.3-5.8-5.8-5.8s-5.8,2.3-5.8,5.8v17.5"/>
	<path class="st2" d="M162.9,442.2v-17.5c0-3.5-2.3-5.8-5.8-5.8s-5.8,2.3-5.8,5.8v17.5"/>
	<path class="st2" d="M197.8,442.2v-17.5c0-3.5-2.3-5.8-5.8-5.8s-5.8,2.3-5.8,5.8v17.5"/>
	<path class="st2" d="M232.7,442.2v-17.5c0-3.5-2.3-5.8-5.8-5.8s-5.8,2.3-5.8,5.8v17.5"/>
</g>
<path class="st0" d="M314.2,360.7h-256c-7,0-11.6-4.7-11.6-11.6v-23.3c0-7,4.7-11.6,11.6-11.6h256c7,0,11.6,4.7,11.6,11.6v23.3
	C325.8,356.1,321.2,360.7,314.2,360.7z"/>
<path class="st1" d="M267.6,325.8H46.5l0,0c0-7,4.7-11.6,11.6-11.6h209.5V325.8z"/>
<g>
	<path class="st2" d="M267.6,325.8v11.6c0,7-4.7,11.6-11.6,11.6H46.5c0,7,4.7,11.6,11.6,11.6H256h58.2c7,0,11.6-4.7,11.6-11.6v-23.3
		L267.6,325.8L267.6,325.8z"/>
	<path class="st2" d="M81.5,349.1v-17.5c0-3.5-2.3-5.8-5.8-5.8s-5.8,2.3-5.8,5.8v17.5"/>
	<path class="st2" d="M116.4,349.1v-17.5c0-3.5-2.3-5.8-5.8-5.8s-5.8,2.3-5.8,5.8v17.5"/>
	<path class="st2" d="M151.3,349.1v-17.5c0-3.5-2.3-5.8-5.8-5.8s-5.8,2.3-5.8,5.8v17.5"/>
	<path class="st2" d="M186.2,349.1v-17.5c0-3.5-2.3-5.8-5.8-5.8s-5.8,2.3-5.8,5.8v17.5"/>
	<path class="st2" d="M221.1,349.1v-17.5c0-3.5-2.3-5.8-5.8-5.8s-5.8,2.3-5.8,5.8v17.5"/>
	<path class="st2" d="M256,349.1v-17.5c0-3.5-2.3-5.8-5.8-5.8s-5.8,2.3-5.8,5.8v17.5"/>
</g>
<path class="st0" d="M290.9,314.2h-256c-7,0-11.6-4.7-11.6-11.6v-23.3c0-7,4.7-11.6,11.6-11.6h256c7,0,11.6,4.7,11.6,11.6v23.3
	C302.5,309.5,297.9,314.2,290.9,314.2z"/>
<path class="st1" d="M244.4,279.3H23.3l0,0c0-7,4.7-11.6,11.6-11.6h209.5V279.3z"/>
<g>
	<path class="st2" d="M244.4,279.3v11.6c0,7-4.7,11.6-11.6,11.6H23.3c0,7,4.7,11.6,11.6,11.6h197.8h58.2c7,0,11.6-4.7,11.6-11.6
		v-23.3L244.4,279.3L244.4,279.3z"/>
	<path class="st2" d="M58.2,302.5v-17.5c0-3.5-2.3-5.8-5.8-5.8s-5.8,2.3-5.8,5.8v17.5"/>
	<path class="st2" d="M93.1,302.5v-17.5c0-3.5-2.3-5.8-5.8-5.8s-5.8,2.3-5.8,5.8v17.5"/>
	<path class="st2" d="M128,302.5v-17.5c0-3.5-2.3-5.8-5.8-5.8s-5.8,2.3-5.8,5.8v17.5"/>
	<path class="st2" d="M162.9,302.5v-17.5c0-3.5-2.3-5.8-5.8-5.8s-5.8,2.3-5.8,5.8v17.5"/>
	<path class="st2" d="M197.8,302.5v-17.5c0-3.5-2.3-5.8-5.8-5.8s-5.8,2.3-5.8,5.8v17.5"/>
	<path class="st2" d="M232.7,302.5v-17.5c0-3.5-2.3-5.8-5.8-5.8s-5.8,2.3-5.8,5.8v17.5"/>
</g>
<path class="st0" d="M267.6,407.3h-256c-7,0-11.6-4.7-11.6-11.6v-23.3c0-7,4.7-11.6,11.6-11.6h256c7,0,11.6,4.7,11.6,11.6v23.3
	C279.3,402.6,274.6,407.3,267.6,407.3z"/>
<path class="st1" d="M221.1,372.4H0l0,0c0-7,4.7-11.6,11.6-11.6h209.5V372.4z"/>
<g>
	<path class="st2" d="M221.1,372.4V384c0,7-4.7,11.6-11.6,11.6H0c0,7,4.7,11.6,11.6,11.6h197.8h58.2c7,0,11.6-4.7,11.6-11.6v-23.3
		L221.1,372.4L221.1,372.4z"/>
	<path class="st2" d="M34.9,395.6v-17.5c0-3.5-2.3-5.8-5.8-5.8s-5.8,2.3-5.8,5.8v17.5"/>
	<path class="st2" d="M69.8,395.6v-17.5c0-3.5-2.3-5.8-5.8-5.8c-3.5,0-5.8,2.3-5.8,5.8v17.5"/>
	<path class="st2" d="M104.7,395.6v-17.5c0-3.5-2.3-5.8-5.8-5.8s-5.8,2.3-5.8,5.8v17.5"/>
	<path class="st2" d="M139.6,395.6v-17.5c0-3.5-2.3-5.8-5.8-5.8s-5.8,2.3-5.8,5.8v17.5"/>
	<path class="st2" d="M174.5,395.6v-17.5c0-3.5-2.3-5.8-5.8-5.8s-5.8,2.3-5.8,5.8v17.5"/>
	<path class="st2" d="M209.5,395.6v-17.5c0-3.5-2.3-5.8-5.8-5.8s-5.8,2.3-5.8,5.8v17.5"/>
</g>
<path class="st3" d="M488.7,424.7c-15.1-10.5-23.3-27.9-23.3-46.5c0-71-27.9-138.5-78-188.5l-50-50v-34.9l40.7-51.2
	c3.5-4.7,5.8-10.5,5.8-16.3c0-14-11.6-25.6-25.6-25.6h-44.2l-11.6,23.3l-23.3-23.3h-55.9c-14,0-25.6,11.6-25.6,25.6
	c0,5.8,2.3,11.6,5.8,16.3l40.7,51.2v34.9l-50,50c-50,50-78,117.5-78,188.5l0,0c0,18.6-8.1,36.1-23.3,46.5s-23.3,27.9-23.3,46.5l0,0
	c0,16.3,12.8,29.1,29.1,29.1h384c16.3,0,29.1-12.8,29.1-29.1l0,0C512,452.7,503.9,435.2,488.7,424.7z"/>
<path class="st4" d="M488.7,424.7c-15.1-11.6-23.3-29.1-23.3-47.7c1.2-73.3-32.6-142-83.8-194.3l-44.2-43.1v-34.9l40.7-51.2
	c7-8.1,8.1-19.8,2.3-30.3c-4.7-8.1-14-11.6-23.3-11.6c-8.1,0-12.8,9.3-10.5,16.3c1.2,2.3,2.3,5.8,2.3,9.3c0,5.8-2.3,11.6-5.8,16.3
	l-40.7,51.2v34.9h-58.2l-11.6,11.6h81.5l43.1,43.1c47.7,47.7,66.3,112.9,61.7,179.2c-1.2,19.8,7,38.4,22.1,50
	c1.2,1.2,2.3,2.3,3.5,2.3c17.5,18.6,2.3,50-24.4,50H71c2.3,12.8,14,23.3,27.9,23.3h337.5h29.1h17.5c16.3,0,29.1-12.8,29.1-29.1v-2.3
	C512,450.3,502.7,435.2,488.7,424.7z"/>
<path class="st1" d="M343.3,139.6H238.5c-9.3,0-17.5-8.1-17.5-17.5l0,0c0-9.3,8.1-17.5,17.5-17.5h104.7c9.3,0,17.5,8.1,17.5,17.5
	l0,0C360.7,131.5,352.6,139.6,343.3,139.6z"/>
<path class="st5" d="M238.5,104.7h58.2c3.5,0,5.8,2.3,5.8,5.8l0,0c0,3.5-2.3,5.8-5.8,5.8h-58.2c-3.5,0-5.8-2.3-5.8-5.8l0,0
	C232.7,107.1,235.1,104.7,238.5,104.7z"/>
<path class="st0" d="M343.3,104.7h-5.8v11.6c0,7-4.7,11.6-11.6,11.6H222.3c2.3,7,9.3,11.6,16.3,11.6h104.7c9.3,0,17.5-8.1,17.5-17.5
	S352.6,104.7,343.3,104.7z"/>
<path class="st2" d="M308.4,128h34.9c3.5,0,5.8,2.3,5.8,5.8l0,0c0,3.5-2.3,5.8-5.8,5.8h-34.9c-3.5,0-5.8-2.3-5.8-5.8l0,0
	C302.5,130.3,304.9,128,308.4,128z"/>
<rect x="279.3" y="139.6" class="st0" width="23.3" height="93.1"/>
<polygon class="st2" points="279.3,139.6 279.3,151.3 290.9,151.3 290.9,232.7 302.5,232.7 302.5,151.3 302.5,139.6 "/>
<circle class="st0" cx="290.9" cy="314.2" r="93.1"/>
<path class="st4" d="M361.9,254.8c14,16.3,22.1,36.1,22.1,59.3c0,51.2-41.9,93.1-93.1,93.1c-23.3,0-43.1-8.1-59.3-22.1
	c17.5,20.9,43.1,33.7,71,33.7c51.2,0,93.1-41.9,93.1-93.1C395.6,296.7,382.8,271.1,361.9,254.8z"/>
<circle class="st1" cx="290.9" cy="314.2" r="81.5"/>
<path class="st2" d="M372.4,314.2c0,45.4-36.1,81.5-81.5,81.5v11.6c51.2,0,93.1-41.9,93.1-93.1H372.4z"/>
<path class="st6" d="M290.9,232.7v-11.6c-51.2,0-93.1,41.9-93.1,93.1h11.6C209.5,268.8,245.5,232.7,290.9,232.7z"/>
<g>
	<path class="st7" d="M249.7,320.1c-0.1-1.5-0.1-3-0.1-4.6l0.1-3.9h-3.5c-2.7,0-4.7-2.2-4.7-4.9c0-2.7,2-5,4.7-5h5.3
		c6.2-20.9,26.3-33.3,46-33.3c8.4,0,14.4,1.3,20.2,3.5c4.6,1.8,7.7,4.7,7.7,9.3c0,5.3-3.9,9-8.8,9c-5.3,0-7.4-4.5-19.7-4.5
		c-9.6,0-19.8,5.7-24.8,15.9h35.1c2.6,0,4.9,2.3,4.9,5c0,2.7-2.3,4.9-4.9,4.9h-37.8c-0.1,1.3-0.3,2.6-0.3,3.9c0,1.6,0,3.1,0.3,4.6
		h30.8c2.6,0,4.9,2.4,4.9,5.1c0,2.7-2.3,4.9-4.9,4.9h-27.9c5,10.1,15,15.1,24.7,15.1c4.6,0,8.1-0.5,10.9-1.3c4.9-1.5,8-3.2,10.5-3.2
		c4.9,0,8.4,3.6,8.4,9c0,4.6-3.6,7.6-8,9.3c-5.8,2.3-13.2,3.9-21.6,3.9c-21.7,0-40.1-11.7-45.8-32.8h-5.3c-2.7,0-4.7-2.2-4.7-4.9
		c0-2.7,2-5.1,4.7-5.1H249.7z"/>
</g>
</svg>
