<?xml version="1.0" encoding="utf-8"?>
<!-- Generator: Adobe Illustrator 27.0.0, SVG Export Plug-In . SVG Version: 6.00 Build 0)  -->
<svg version="1.1" id="Warstwa_1" xmlns="http://www.w3.org/2000/svg" xmlns:xlink="http://www.w3.org/1999/xlink" x="0px" y="0px"
	 viewBox="0 0 106 51" style="enable-background:new 0 0 106 51;" xml:space="preserve">
<style type="text/css">
	.st0{fill:#FFFFFF;}
</style>
<g>
	<path class="st0" d="M84.4,25.4L84.4,25.4c-0.1,0.1-0.5,1.2-1.2,3.3l-2.2,6h6.7l-2.2-6c-0.2-0.5-0.3-1-0.5-1.4
		c-0.2-0.4-0.3-0.8-0.4-1.2C84.5,25.8,84.5,25.6,84.4,25.4z"/>
	<path class="st0" d="M46.3,27.8c0-1.2-0.4-2.1-1.1-2.8c-0.8-0.7-1.9-1-3.3-1H40v7.7h1.8c1.1,0,2-0.2,2.8-0.7
		C45.7,30.4,46.3,29.3,46.3,27.8z"/>
	<path class="st0" d="M104.5,40.1c-1,0.8-2.4,1.3-4.1,1.3c-1.7,0-3.2-0.4-4.5-1.3l0.7-1.2c1.2,0.8,2.5,1.2,3.9,1.2
		c0.8,0,1.4-0.1,2-0.3c0.6-0.2,1-0.6,1.4-1.1c0.4-0.5,0.6-1.2,0.6-1.9c0-0.5-0.1-1-0.3-1.4c-0.2-0.4-0.4-0.8-0.7-1.1
		c-0.3-0.3-0.7-0.6-1.1-0.9c-0.4-0.3-0.8-0.5-1.3-0.8c-0.4-0.2-0.9-0.5-1.3-0.7c-0.4-0.2-0.9-0.5-1.3-0.8c-0.4-0.3-0.8-0.6-1.1-1
		c-0.3-0.4-0.6-0.8-0.7-1.3c-0.2-0.5-0.3-1-0.3-1.6c0-1.3,0.5-2.4,1.4-3.2c0.9-0.8,2.2-1.3,3.8-1.3c0.7,0,1.4,0.1,2.1,0.2
		c0.7,0.2,1.2,0.4,1.7,0.6v1.4c-1.1-0.6-2.3-0.9-3.7-0.9c-0.6,0-1.2,0.1-1.8,0.3c-0.5,0.2-1,0.5-1.4,1c-0.4,0.5-0.6,1.1-0.6,1.7
		c0,0.5,0.1,0.9,0.3,1.3c0.2,0.4,0.4,0.8,0.7,1.1c0.3,0.3,0.7,0.6,1.1,0.9c0.4,0.3,0.8,0.5,1.3,0.8c0.4,0.3,0.9,0.5,1.3,0.8
		s0.9,0.5,1.3,0.9c0.4,0.3,0.8,0.7,1.1,1c0.3,0.4,0.6,0.8,0.7,1.3c0.2,0.5,0.3,1.1,0.3,1.7V-0.1H0v23.7l1.4-0.6l6.1,15.3
		C20-5.6,63.5,2.7,69,6c-48.5-6.4-55.5,35-55.5,35H7.3L7,41.2l0-0.1H6.7c0-0.1,0.1-0.2,0.1-0.3L0,23.6v27.3h106V36.6
		C106,38.1,105.5,39.2,104.5,40.1z M32.3,41h-8.5V22.7h8.3L31.5,24h-6.3v7h6.1v1.3h-6.1v7.5h7V41z M47.8,41l-3.5-5.6
		c-0.9-1.5-1.6-2.3-2.1-2.4H40V41h-1.5V22.7h3.2c1.8,0,3.2,0.4,4.2,1.1c1.3,0.9,1.9,2.2,1.9,3.8c0,2.5-1.3,4.1-3.8,4.9v0.1
		c0.3,0.1,0.5,0.4,0.8,0.8c0.3,0.4,0.8,1.1,1.3,2.1l3.4,5.6H47.8z M56.5,41H55V22.7h1.5V41z M73.7,24h-5.3v17h-1.5V24h-5.3v-1.3
		h12.6L73.7,24z M90.1,41L88.2,36h-7.7L78.7,41H77l6.9-18.4h0.9L91.7,41H90.1z M35,4.7c-1.7,0.8-3.5,1.7-5.3,2.7
		C29.7,7.5,31.6,6.2,35,4.7c34.8-15.9,58.8,13,60.5,18.1C69.6-5,45.4,0.4,35,4.7z"/>
</g>
</svg>
