<?xml version="1.0" encoding="utf-8"?>
<!-- Generator: Adobe Illustrator 27.0.0, SVG Export Plug-In . SVG Version: 6.00 Build 0)  -->
<svg version="1.1" id="Warstwa_1" xmlns="http://www.w3.org/2000/svg" xmlns:xlink="http://www.w3.org/1999/xlink" x="0px" y="0px"
	 viewBox="0 0 126.2 46.9" style="enable-background:new 0 0 126.2 46.9;" xml:space="preserve">
<style type="text/css">
	.st0{fill:#F3F4F6;}
</style>
<g id="Warstwa_2_00000031201656998874771930000007488176623979943815_">
</g>
<g id="Warstwa_1_00000171682570119813202650000009694722214046241467_">
	<g>
		<path class="st0" d="M56.4,30.6c0-1.2-0.4-2.1-1.1-2.7c-0.7-0.7-1.8-1-3.3-1h-1.8v7.6H52c1.1,0,2-0.2,2.7-0.7
			C55.9,33.1,56.4,32.1,56.4,30.6z"/>
		<path class="st0" d="M94.3,28.2L94.3,28.2c-0.1,0.1-0.5,1.2-1.2,3.3l-2.2,5.9h6.7l-2.1-5.9c-0.2-0.5-0.3-1-0.5-1.4
			s-0.3-0.8-0.4-1.2C94.4,28.6,94.3,28.4,94.3,28.2z"/>
	</g>
</g>
<path class="st0" d="M126.2,43.9V3v0V0H0v3v0v41h0.3v2.9h126.2v-3H126.2z M113.9,38c-0.2-0.4-0.4-0.8-0.7-1.1
	c-0.3-0.3-0.7-0.6-1.1-0.9s-0.8-0.5-1.3-0.8c-0.4-0.2-0.9-0.5-1.3-0.7c-0.4-0.2-0.9-0.5-1.3-0.8c-0.4-0.3-0.8-0.6-1.1-1
	c-0.3-0.3-0.6-0.8-0.7-1.2c-0.2-0.5-0.3-1-0.3-1.6c0-1.3,0.5-2.3,1.4-3.2c0.9-0.8,2.2-1.3,3.8-1.3c0.7,0,1.4,0.1,2.1,0.2
	c0.7,0.2,1.2,0.3,1.7,0.6v1.4c-1.1-0.6-2.3-0.9-3.7-0.9c-0.6,0-1.2,0.1-1.7,0.3s-1,0.5-1.3,1c-0.4,0.5-0.6,1-0.6,1.7
	c0,0.5,0.1,0.9,0.3,1.3s0.4,0.7,0.7,1s0.7,0.6,1.1,0.9c0.4,0.3,0.8,0.5,1.3,0.8c0.4,0.3,0.9,0.5,1.3,0.8c0.4,0.3,0.9,0.5,1.3,0.9
	c0.4,0.3,0.8,0.7,1.1,1c0.3,0.4,0.6,0.8,0.7,1.3c0.2,0.5,0.3,1.1,0.3,1.7c-0.2,1.4-0.7,2.5-1.7,3.4c-0.8,0.7-1.9,1-3.2,1.1h-1.7
	c-1.3-0.1-2.5-0.5-3.6-1.2l0.7-1.2c1.2,0.8,2.5,1.2,3.9,1.2c0.7,0,1.4-0.1,2-0.3c0.6-0.2,1-0.6,1.4-1.1s0.6-1.1,0.6-1.9
	C114.2,38.9,114.1,38.4,113.9,38z M41.6,33.8V35h-6.1v7.4h7v1.3h-8.4V25.6h8.2l-0.6,1.3h-6.2v6.9H41.6z M55,36.1
	c0.3,0.4,0.7,1.1,1.3,2.1l3.4,5.5H58l-3.4-5.6c-0.9-1.5-1.6-2.3-2.1-2.4h-2.3v8h-1.5V25.6h3.2c1.8,0,3.2,0.3,4.2,1
	c1.3,0.9,1.9,2.2,1.9,3.8c0,2.5-1.3,4.1-3.8,4.8v0.1C54.5,35.4,54.7,35.7,55,36.1z M65.1,43.7V25.6h1.5v18.1H65.1z M71.8,26.8v-1.3
	h12.5l-0.6,1.3h-5.2v16.9H77V26.8H71.8z M87,43.7l6.8-18.2h0.9l6.8,18.2h-1.6l-1.8-5h-7.7l-1.8,5H87z M45.3,7.7
	C52,4.6,58.3,3.2,64.2,3h3.2c22.3,0.9,36.7,18.7,38,22.6C79.6-2,55.6,3.4,45.3,7.7c-1.7,0.8-3.5,1.7-5.2,2.6
	C40.5,10,42.3,8.9,45.3,7.7z M11.9,25.9l6,15.1C30.3-2.5,73.5,5.6,79,9C30.8,2.6,23.9,43.8,23.9,43.8h-6.2l-0.3,0.1v-0.1h-0.2
	c0-0.1,0.1-0.2,0.1-0.3l-6.8-17L11.9,25.9z"/>
</svg>
